<?xml version="1.0" encoding="utf-8"?>
<!-- Generator: Adobe Illustrator 23.1.0, SVG Export Plug-In . SVG Version: 6.00 Build 0)  -->
<svg version="1.1" id="Layer_1" xmlns="http://www.w3.org/2000/svg" xmlns:xlink="http://www.w3.org/1999/xlink" x="0px" y="0px"
	 viewBox="0 0 178 50" style="enable-background:new 0 0 178 50;" xml:space="preserve">
<style type="text/css">
	.st0{opacity:0.12;fill:#FC653C;}
	.st1{fill:#FC653C;}
</style>
<g>
	<path d="M58.9,31.9L53.3,19h3.2l4.9,11.4h-1.9L64.5,19h3l-5.6,12.9C61.8,31.9,58.9,31.9,58.9,31.9z"/>
	<path d="M72.5,32c-1.1,0-2.1-0.2-3-0.7s-1.5-1-2-1.8c-0.5-0.8-0.7-1.6-0.7-2.6c0-1,0.2-1.9,0.7-2.6s1.1-1.4,1.9-1.8
		c0.8-0.4,1.7-0.6,2.7-0.6c1,0,1.8,0.2,2.6,0.6c0.8,0.4,1.4,1,1.8,1.8c0.4,0.8,0.7,1.7,0.7,2.7c0,0.1,0,0.2,0,0.4c0,0.1,0,0.3,0,0.4
		h-8v-1.7h6.5l-1.1,0.5c0-0.5-0.1-1-0.3-1.3c-0.2-0.4-0.5-0.7-0.9-0.9C73,24.1,72.6,24,72.1,24s-0.9,0.1-1.3,0.3
		c-0.4,0.2-0.7,0.5-0.9,0.9c-0.2,0.4-0.3,0.8-0.3,1.4V27c0,0.5,0.1,1,0.4,1.4s0.6,0.7,1,0.9c0.4,0.2,0.9,0.3,1.5,0.3
		c0.5,0,1-0.1,1.4-0.2s0.8-0.4,1.1-0.7l1.5,1.7c-0.4,0.5-1,0.9-1.7,1.2C74.2,31.9,73.4,32,72.5,32z"/>
	<path d="M79.2,31.9V22h2.7v2.8L81.5,24c0.3-0.7,0.8-1.2,1.4-1.6s1.4-0.5,2.4-0.5v2.7c-0.1,0-0.2,0-0.3,0c-0.1,0-0.2,0-0.3,0
		c-0.8,0-1.4,0.2-1.9,0.7S82,26.3,82,27.2v4.7L79.2,31.9L79.2,31.9z"/>
	<path d="M86.2,24.4v-2.2H93v2.2H86.2z M91.4,32c-1.2,0-2.1-0.3-2.7-0.9s-1-1.5-1-2.7v-8.7h2.9v8.6c0,0.4,0.1,0.7,0.3,1
		s0.5,0.4,0.9,0.4c0.5,0,0.9-0.1,1.2-0.4l0.8,2c-0.3,0.2-0.6,0.4-1,0.5C92.3,32,91.8,32,91.4,32z"/>
	<path d="M96.8,20.6c-0.5,0-1-0.1-1.3-0.5S95,19.5,95,19c0-0.5,0.2-0.8,0.5-1.1s0.8-0.5,1.3-0.5c0.5,0,1,0.1,1.3,0.4
		c0.3,0.3,0.5,0.7,0.5,1.1c0,0.5-0.2,0.9-0.5,1.2C97.8,20.4,97.3,20.6,96.8,20.6z M95.4,31.9V22h2.9v9.9
		C98.2,31.9,95.4,31.9,95.4,31.9z"/>
	<path d="M105.7,32c-1.1,0-2-0.2-2.8-0.6c-0.8-0.4-1.5-1-1.9-1.8c-0.5-0.8-0.7-1.6-0.7-2.6c0-1,0.2-1.9,0.7-2.6s1.1-1.4,1.9-1.8
		c0.8-0.4,1.8-0.7,2.8-0.7c1,0,1.9,0.2,2.7,0.6c0.8,0.4,1.3,1,1.7,1.9l-2.2,1.2c-0.3-0.5-0.6-0.8-1-1c-0.4-0.2-0.8-0.3-1.3-0.3
		c-0.5,0-0.9,0.1-1.3,0.3c-0.4,0.2-0.7,0.5-0.9,0.9c-0.2,0.4-0.3,0.9-0.3,1.5s0.1,1.1,0.3,1.5c0.2,0.4,0.6,0.7,0.9,0.9
		c0.4,0.2,0.8,0.3,1.3,0.3c0.4,0,0.9-0.1,1.3-0.3s0.7-0.6,1-1l2.2,1.2c-0.3,0.8-0.9,1.4-1.7,1.8C107.6,31.8,106.7,32,105.7,32z"/>
	<path d="M114.8,32c-0.8,0-1.4-0.1-2-0.4c-0.6-0.3-1-0.6-1.3-1.1c-0.3-0.5-0.4-1-0.4-1.5c0-0.6,0.1-1.1,0.4-1.5
		c0.3-0.5,0.8-0.8,1.4-1c0.6-0.3,1.4-0.4,2.5-0.4h2.6v1.6h-2.3c-0.7,0-1.1,0.1-1.4,0.3s-0.4,0.5-0.4,0.8c0,0.4,0.1,0.7,0.4,0.9
		c0.3,0.2,0.7,0.3,1.2,0.3s0.9-0.1,1.3-0.3c0.4-0.2,0.7-0.6,0.8-1l0.4,1.3c-0.2,0.6-0.6,1.1-1.1,1.4C116.4,31.9,115.7,32,114.8,32z
		 M117.8,31.9v-1.9l-0.2-0.4v-3.5c0-0.6-0.2-1.1-0.6-1.4c-0.4-0.3-0.9-0.5-1.7-0.5c-0.5,0-1.1,0.1-1.6,0.3c-0.5,0.2-0.9,0.4-1.3,0.7
		l-1-2c0.5-0.4,1.2-0.7,1.9-0.9c0.8-0.2,1.5-0.3,2.3-0.3c1.5,0,2.7,0.4,3.5,1.1s1.3,1.8,1.3,3.3v5.6L117.8,31.9L117.8,31.9z"/>
	<path d="M123.1,31.9V18.2h2.9v13.6L123.1,31.9L123.1,31.9z"/>
	<path d="M132,32c-0.9,0-1.6-0.1-2.4-0.3c-0.8-0.2-1.4-0.5-1.9-0.8l0.9-2c0.5,0.3,1,0.5,1.6,0.7c0.6,0.2,1.2,0.3,1.8,0.3
		c0.7,0,1.1-0.1,1.4-0.2s0.4-0.4,0.4-0.7c0-0.2-0.1-0.4-0.3-0.5c-0.2-0.1-0.5-0.2-0.9-0.3s-0.7-0.1-1.2-0.2s-0.9-0.1-1.3-0.3
		s-0.8-0.3-1.2-0.5c-0.4-0.2-0.6-0.5-0.9-0.8s-0.3-0.8-0.3-1.4c0-0.6,0.2-1.2,0.5-1.7s0.9-0.9,1.6-1.1c0.7-0.3,1.5-0.4,2.4-0.4
		c0.7,0,1.4,0.1,2.1,0.2s1.3,0.4,1.8,0.6l-1,2c-0.5-0.3-0.9-0.5-1.4-0.6c-0.5-0.1-0.9-0.2-1.4-0.2c-0.7,0-1.1,0.1-1.4,0.3
		s-0.4,0.4-0.4,0.7c0,0.3,0.1,0.4,0.3,0.6s0.5,0.2,0.9,0.3c0.4,0.1,0.8,0.1,1.2,0.2s0.9,0.1,1.3,0.3s0.8,0.3,1.2,0.5
		c0.4,0.2,0.6,0.5,0.9,0.8s0.3,0.8,0.3,1.4c0,0.6-0.2,1.1-0.6,1.6c-0.4,0.5-0.9,0.8-1.6,1.1C133.8,31.9,133,32,132,32z"/>
	<path d="M143.1,32c-1,0-2-0.2-2.8-0.7c-0.8-0.4-1.5-1-1.9-1.8c-0.5-0.8-0.7-1.6-0.7-2.6c0-1,0.2-1.9,0.7-2.6
		c0.5-0.8,1.1-1.4,1.9-1.8c0.8-0.4,1.7-0.6,2.8-0.6c1.1,0,2,0.2,2.8,0.6c0.8,0.4,1.5,1,1.9,1.8c0.5,0.8,0.7,1.6,0.7,2.6
		s-0.2,1.9-0.7,2.6s-1.1,1.4-1.9,1.8S144.2,32,143.1,32z M143.1,29.7c0.5,0,0.9-0.1,1.3-0.3c0.4-0.2,0.7-0.5,0.9-1s0.3-0.9,0.3-1.5
		c0-0.6-0.1-1.1-0.3-1.5c-0.2-0.4-0.5-0.7-0.9-0.9c-0.4-0.2-0.8-0.3-1.3-0.3s-0.9,0.1-1.3,0.3c-0.4,0.2-0.7,0.5-0.9,0.9
		c-0.2,0.4-0.3,0.9-0.3,1.5c0,0.6,0.1,1,0.3,1.5s0.5,0.7,0.9,1C142.2,29.6,142.6,29.7,143.1,29.7z"/>
	<path d="M150.5,31.9V18.2h2.9v13.6L150.5,31.9L150.5,31.9z"/>
	<path d="M159.3,32c-0.9,0-1.6-0.1-2.4-0.3c-0.8-0.2-1.4-0.5-1.9-0.8l0.9-2c0.5,0.3,1,0.5,1.6,0.7c0.6,0.2,1.2,0.3,1.8,0.3
		c0.7,0,1.1-0.1,1.4-0.2s0.4-0.4,0.4-0.7c0-0.2-0.1-0.4-0.3-0.5c-0.2-0.1-0.5-0.2-0.9-0.3c-0.4-0.1-0.7-0.1-1.2-0.2
		s-0.9-0.1-1.3-0.3s-0.8-0.3-1.2-0.5c-0.4-0.2-0.6-0.5-0.9-0.8s-0.3-0.8-0.3-1.4c0-0.6,0.2-1.2,0.6-1.7c0.4-0.5,0.9-0.9,1.6-1.1
		c0.7-0.3,1.5-0.4,2.4-0.4c0.7,0,1.4,0.1,2.1,0.2s1.3,0.4,1.8,0.6l-1,2c-0.5-0.3-0.9-0.5-1.4-0.6c-0.5-0.1-0.9-0.2-1.4-0.2
		c-0.7,0-1.1,0.1-1.4,0.3s-0.4,0.4-0.4,0.7c0,0.3,0.1,0.4,0.3,0.6s0.5,0.2,0.9,0.3c0.4,0.1,0.8,0.1,1.2,0.2s0.9,0.1,1.3,0.3
		s0.8,0.3,1.2,0.5c0.4,0.2,0.6,0.5,0.9,0.8s0.3,0.8,0.3,1.4c0,0.6-0.2,1.1-0.6,1.6c-0.4,0.5-0.9,0.8-1.6,1.1
		C161.2,31.9,160.3,32,159.3,32z"/>
</g>
<circle class="st0" cx="28.5" cy="27.5" r="20.5"/>
<g>
	<polygon class="st1" points="57.2,2.3 34.6,42.6 20.7,18.6 25.6,18.6 34.3,34.8 51.9,4.3 	"/>
	<polygon class="st1" points="32,12.1 49.8,5.1 34.3,32 27.1,18.6 31.2,18.6 34.6,24.4 41.5,12.2 	"/>
	<polygon class="st1" points="20.7,18.6 11.4,31 16.6,31 22.9,22.5 	"/>
	<polygon class="st1" points="23.6,23.7 18.4,31 22.4,31 25.4,26.8 	"/>
</g>
</svg>
