<?xml version="1.0" encoding="utf-8"?>
<!-- Generator: Adobe Illustrator 23.1.0, SVG Export Plug-In . SVG Version: 6.00 Build 0)  -->
<svg version="1.1" id="Layer_1" xmlns="http://www.w3.org/2000/svg" xmlns:xlink="http://www.w3.org/1999/xlink" x="0px" y="0px"
	 viewBox="0 0 178 50" style="enable-background:new 0 0 178 50;" xml:space="preserve">
<style type="text/css">
	.st0{opacity:0.43;fill:#FC653C;}
	.st1{fill:#FC653C;}
</style>
<path d="M58.91,31.87L53.34,19h3.24l4.86,11.4h-1.89L64.46,19h2.96l-5.57,12.87H58.91z"/>
<path d="M72.46,32.02c-1.13,0-2.11-0.22-2.96-0.66c-0.85-0.44-1.5-1.05-1.97-1.81c-0.47-0.77-0.7-1.64-0.7-2.62
	c0-0.98,0.22-1.86,0.67-2.63c0.45-0.77,1.07-1.38,1.88-1.81c0.8-0.43,1.71-0.65,2.71-0.65c0.97,0,1.84,0.21,2.62,0.63
	c0.78,0.42,1.39,1.01,1.85,1.77c0.45,0.76,0.68,1.67,0.68,2.74c0,0.11-0.01,0.24-0.02,0.38c-0.01,0.14-0.02,0.27-0.04,0.4h-8.04
	v-1.67h6.53l-1.12,0.5c0.01-0.51-0.09-0.96-0.29-1.34c-0.21-0.38-0.5-0.68-0.86-0.89C73.03,24.11,72.6,24,72.11,24
	s-0.92,0.11-1.3,0.32c-0.37,0.21-0.67,0.51-0.87,0.9c-0.21,0.39-0.31,0.84-0.31,1.37v0.44c0,0.55,0.12,1.03,0.37,1.43
	s0.58,0.71,1.01,0.93c0.43,0.21,0.94,0.32,1.54,0.32c0.51,0,0.97-0.08,1.37-0.24c0.4-0.16,0.76-0.4,1.09-0.72l1.53,1.66
	c-0.45,0.51-1.02,0.91-1.71,1.19C74.15,31.88,73.36,32.02,72.46,32.02z"/>
<path d="M79.16,31.87v-9.89h2.74v2.81l-0.39-0.83c0.29-0.7,0.77-1.23,1.42-1.59c0.65-0.36,1.44-0.54,2.37-0.54v2.67
	c-0.11-0.02-0.22-0.04-0.32-0.05c-0.1-0.01-0.21-0.02-0.3-0.02c-0.81,0-1.45,0.23-1.93,0.68c-0.48,0.45-0.72,1.15-0.72,2.1v4.67
	H79.16z"/>
<path d="M86.18,24.41V22.2h6.86v2.21H86.18z M91.41,32.02c-1.16,0-2.07-0.3-2.72-0.89c-0.65-0.59-0.97-1.48-0.97-2.66v-8.68h2.89
	v8.63c0,0.42,0.11,0.74,0.32,0.97c0.21,0.23,0.51,0.35,0.87,0.35c0.47,0,0.86-0.12,1.18-0.37l0.75,2.02
	c-0.28,0.21-0.63,0.36-1.04,0.47C92.27,31.97,91.85,32.02,91.41,32.02z"/>
<path d="M96.8,20.6c-0.54,0-0.97-0.15-1.31-0.46s-0.5-0.69-0.5-1.14c0-0.45,0.17-0.83,0.5-1.14c0.33-0.31,0.77-0.46,1.31-0.46
	c0.53,0,0.96,0.14,1.3,0.43c0.34,0.29,0.51,0.66,0.51,1.11c0,0.48-0.16,0.87-0.5,1.19C97.77,20.44,97.34,20.6,96.8,20.6z
	 M95.36,31.87v-9.89h2.87v9.89H95.36z"/>
<path d="M105.68,32.02c-1.07,0-2.01-0.22-2.84-0.65c-0.83-0.44-1.48-1.04-1.95-1.81c-0.47-0.77-0.71-1.65-0.71-2.63
	c0-0.99,0.24-1.87,0.71-2.63c0.47-0.76,1.12-1.36,1.95-1.8c0.83-0.44,1.77-0.66,2.84-0.66c1.04,0,1.95,0.22,2.73,0.65
	c0.78,0.44,1.34,1.05,1.68,1.85l-2.21,1.21c-0.27-0.47-0.59-0.81-0.97-1.02c-0.38-0.21-0.8-0.32-1.25-0.32
	c-0.48,0-0.91,0.11-1.31,0.32c-0.39,0.21-0.7,0.52-0.94,0.93c-0.23,0.4-0.35,0.89-0.35,1.47c0,0.58,0.12,1.07,0.35,1.48
	c0.23,0.41,0.55,0.72,0.94,0.94c0.39,0.21,0.83,0.32,1.31,0.32c0.45,0,0.87-0.11,1.25-0.32c0.38-0.21,0.71-0.56,0.97-1.04l2.21,1.21
	c-0.34,0.78-0.9,1.4-1.68,1.84C107.63,31.8,106.72,32.02,105.68,32.02z"/>
<path d="M114.82,32.02c-0.76,0-1.42-0.13-1.97-0.4c-0.55-0.26-0.98-0.62-1.28-1.08c-0.3-0.45-0.45-0.96-0.45-1.53
	c0-0.58,0.14-1.09,0.43-1.54c0.29-0.45,0.75-0.79,1.37-1.04c0.63-0.25,1.45-0.37,2.46-0.37H118v1.65h-2.32
	c-0.67,0-1.14,0.11-1.39,0.33c-0.25,0.22-0.38,0.5-0.38,0.83c0,0.37,0.14,0.66,0.43,0.87c0.29,0.21,0.68,0.32,1.17,0.32
	s0.93-0.11,1.31-0.33c0.39-0.22,0.66-0.56,0.82-1.01l0.44,1.34c-0.21,0.61-0.59,1.09-1.14,1.43
	C116.4,31.85,115.69,32.02,114.82,32.02z M117.84,31.87v-1.93l-0.18-0.42v-3.46c0-0.61-0.19-1.09-0.56-1.43
	c-0.37-0.34-0.95-0.51-1.72-0.51c-0.53,0-1.05,0.08-1.55,0.25c-0.51,0.17-0.95,0.39-1.31,0.67l-1.01-2
	c0.54-0.39,1.19-0.69,1.95-0.89c0.76-0.2,1.53-0.3,2.32-0.3c1.51,0,2.68,0.36,3.51,1.07c0.83,0.71,1.25,1.82,1.25,3.33v5.65H117.84z
	"/>
<path d="M123.12,31.87V18.23h2.87v13.65H123.12z"/>
<path d="M131.98,32.02c-0.85,0-1.65-0.1-2.43-0.3c-0.77-0.2-1.39-0.46-1.86-0.76l0.94-2.04c0.47,0.27,1.01,0.49,1.63,0.67
	c0.62,0.18,1.23,0.27,1.83,0.27c0.66,0,1.13-0.08,1.41-0.24c0.28-0.16,0.41-0.38,0.41-0.66c0-0.23-0.11-0.41-0.32-0.52
	c-0.21-0.12-0.5-0.21-0.85-0.27s-0.74-0.12-1.17-0.18c-0.43-0.06-0.86-0.15-1.28-0.26c-0.42-0.11-0.82-0.27-1.18-0.47
	c-0.36-0.2-0.65-0.48-0.86-0.84c-0.21-0.36-0.32-0.81-0.32-1.38c0-0.63,0.18-1.18,0.55-1.66c0.37-0.48,0.89-0.86,1.56-1.13
	c0.67-0.27,1.49-0.4,2.45-0.4c0.69,0,1.38,0.08,2.07,0.23c0.69,0.15,1.28,0.37,1.76,0.63l-0.97,2.04c-0.47-0.27-0.94-0.46-1.43-0.57
	c-0.48-0.11-0.95-0.17-1.39-0.17c-0.66,0-1.14,0.09-1.43,0.26c-0.29,0.17-0.44,0.39-0.44,0.66c0,0.25,0.11,0.43,0.33,0.56
	c0.22,0.13,0.51,0.22,0.86,0.29c0.36,0.06,0.75,0.12,1.18,0.18c0.43,0.06,0.85,0.15,1.27,0.26c0.42,0.11,0.81,0.27,1.17,0.47
	c0.36,0.2,0.65,0.48,0.86,0.84c0.21,0.36,0.32,0.82,0.32,1.38c0,0.6-0.18,1.14-0.55,1.61c-0.37,0.47-0.9,0.84-1.59,1.11
	C133.82,31.89,132.97,32.02,131.98,32.02z"/>
<path d="M143.11,32.02c-1.04,0-1.97-0.22-2.79-0.66c-0.82-0.44-1.46-1.05-1.92-1.81c-0.47-0.77-0.7-1.64-0.7-2.62
	c0-0.99,0.23-1.87,0.7-2.64c0.47-0.77,1.11-1.37,1.92-1.8c0.82-0.43,1.74-0.65,2.79-0.65c1.05,0,1.99,0.22,2.81,0.65
	c0.82,0.44,1.47,1.04,1.93,1.8c0.47,0.77,0.7,1.65,0.7,2.64c0,0.99-0.23,1.87-0.7,2.63c-0.47,0.76-1.11,1.36-1.93,1.8
	C145.1,31.8,144.16,32.02,143.11,32.02z M143.11,29.67c0.49,0,0.92-0.11,1.3-0.32c0.37-0.21,0.67-0.53,0.9-0.95
	c0.23-0.42,0.34-0.91,0.34-1.47c0-0.58-0.11-1.07-0.34-1.47c-0.23-0.41-0.53-0.71-0.9-0.93c-0.37-0.21-0.8-0.32-1.28-0.32
	c-0.48,0-0.91,0.11-1.29,0.32c-0.38,0.21-0.68,0.52-0.91,0.93c-0.23,0.4-0.34,0.89-0.34,1.47c0,0.56,0.11,1.05,0.34,1.47
	c0.23,0.42,0.53,0.73,0.91,0.95C142.22,29.56,142.64,29.67,143.11,29.67z"/>
<path d="M150.46,31.87V18.23h2.87v13.65H150.46z"/>
<path d="M159.33,32.02c-0.85,0-1.65-0.1-2.43-0.3c-0.77-0.2-1.39-0.46-1.86-0.76l0.94-2.04c0.47,0.27,1.01,0.49,1.63,0.67
	c0.62,0.18,1.23,0.27,1.83,0.27c0.66,0,1.13-0.08,1.41-0.24c0.28-0.16,0.41-0.38,0.41-0.66c0-0.23-0.11-0.41-0.32-0.52
	c-0.21-0.12-0.5-0.21-0.85-0.27c-0.35-0.06-0.74-0.12-1.17-0.18c-0.43-0.06-0.86-0.15-1.28-0.26c-0.42-0.11-0.82-0.27-1.18-0.47
	c-0.36-0.2-0.65-0.48-0.86-0.84c-0.21-0.36-0.32-0.81-0.32-1.38c0-0.63,0.18-1.18,0.55-1.66c0.37-0.48,0.89-0.86,1.56-1.13
	c0.67-0.27,1.49-0.4,2.45-0.4c0.69,0,1.38,0.08,2.07,0.23c0.69,0.15,1.28,0.37,1.76,0.63l-0.97,2.04c-0.47-0.27-0.94-0.46-1.43-0.57
	c-0.48-0.11-0.95-0.17-1.39-0.17c-0.66,0-1.14,0.09-1.43,0.26c-0.29,0.17-0.44,0.39-0.44,0.66c0,0.25,0.11,0.43,0.33,0.56
	c0.22,0.13,0.51,0.22,0.86,0.29c0.36,0.06,0.75,0.12,1.18,0.18c0.43,0.06,0.85,0.15,1.27,0.26c0.42,0.11,0.81,0.27,1.17,0.47
	c0.36,0.2,0.65,0.48,0.86,0.84c0.21,0.36,0.32,0.82,0.32,1.38c0,0.6-0.18,1.14-0.55,1.61c-0.37,0.47-0.9,0.84-1.59,1.11
	C161.16,31.89,160.32,32.02,159.33,32.02z"/>
<circle class="st0" cx="28.48" cy="27.52" r="20.48"/>
<g>
	<polygon class="st1" points="57.19,2.28 34.57,42.61 20.67,18.63 25.58,18.63 34.3,34.84 51.87,4.32 	"/>
	<polygon class="st1" points="31.98,12.09 49.83,5.14 34.3,31.98 27.08,18.63 31.16,18.63 34.57,24.35 41.52,12.23 	"/>
	<polygon class="st1" points="20.67,18.63 11.41,31.03 16.59,31.03 22.88,22.45 	"/>
	<polygon class="st1" points="23.63,23.72 18.43,30.96 22.38,30.96 25.41,26.81 	"/>
</g>
</svg>
